<svg width="80" height="80" viewBox="0 0 80 80" fill="none" xmlns="http://www.w3.org/2000/svg">
  <path d="M17.9999 16V14C16.8954 14 15.9999 14.8954 15.9999 16H17.9999ZM61.9999 16H63.9999C63.9999 14.8954 63.1045 14 61.9999 14V16ZM17.9999 22V24C19.1045 24 19.9999 23.1046 19.9999 22H17.9999ZM12.2285 22V20C11.1239 20 10.2285 20.8954 10.2285 22H12.2285ZM12.2285 58H10.2285C10.2285 59.1046 11.1239 60 12.2285 60V58ZM17.9999 58H19.9999C19.9999 56.8954 19.1045 56 17.9999 56V58ZM17.9999 64H15.9999C15.9999 65.1046 16.8954 66 17.9999 66V64ZM61.9999 64V66C63.1045 66 63.9999 65.1046 63.9999 64H61.9999ZM61.9999 58V56C60.8954 56 59.9999 56.8954 59.9999 58H61.9999ZM67.7714 58V60C68.8759 60 69.7714 59.1046 69.7714 58H67.7714ZM67.7714 22H69.7714C69.7714 20.8954 68.8759 20 67.7714 20V22ZM61.9999 22H59.9999C59.9999 23.1046 60.8954 24 61.9999 24V22ZM17.9999 18H61.9999V14H17.9999V18ZM19.9999 22V16H15.9999V22H19.9999ZM12.2285 24H17.9999V20H12.2285V24ZM14.2285 23V22H10.2285V23H14.2285ZM14.2285 57V23H10.2285V57H14.2285ZM14.2285 58V57H10.2285V58H14.2285ZM12.2285 60H17.9999V56H12.2285V60ZM15.9999 58V64H19.9999V58H15.9999ZM61.9999 62H17.9999V66H61.9999V62ZM59.9999 58V64H63.9999V58H59.9999ZM67.7714 56H61.9999V60H67.7714V56ZM65.7714 22V58H69.7714V22H65.7714ZM61.9999 24H67.7714V20H61.9999V24ZM59.9999 16V22H63.9999V16H59.9999Z" fill="#6FCF97" />
  <rect x="6" y="10" width="12" height="12" fill="#F2994A" stroke="#F2994A" stroke-width="4" stroke-linecap="round" stroke-linejoin="round" />
  <rect x="62" y="10" width="12" height="12" fill="#F2994A" stroke="#F2994A" stroke-width="4" stroke-linecap="round" stroke-linejoin="round" />
  <rect x="62" y="58" width="12" height="12" fill="#F2994A" stroke="#F2994A" stroke-width="4" stroke-linecap="round" stroke-linejoin="round" />
  <rect x="6" y="58" width="12" height="12" fill="#F2994A" stroke="#F2994A" stroke-width="4" stroke-linecap="round" stroke-linejoin="round" />
  <path fill-rule="evenodd" clip-rule="evenodd" d="M34 46V54H58V34L46 34V46H34Z" fill="#F2C94C" />
  <path d="M34 54H32C32 55.1046 32.8954 56 34 56L34 54ZM34 46V44C32.8954 44 32 44.8954 32 46H34ZM58 54V56C59.1046 56 60 55.1046 60 54H58ZM58 34H60C60 32.8954 59.1046 32 58 32V34ZM46 34V32C44.8954 32 44 32.8954 44 34H46ZM46 46V48C47.1046 48 48 47.1046 48 46H46ZM36 54V46H32V54H36ZM58 52H34V56H58V52ZM56 34V54H60V34L56 34ZM46 36L58 36V32L46 32V36ZM44 34V46H48V34H44ZM46 44H34V48H46V44Z" fill="#F2C94C" />
  <rect x="22" y="26" width="24" height="20" fill="#EB5757" stroke="#EB5757" stroke-width="4" stroke-linecap="round" stroke-linejoin="round" />
</svg>
